<svg xmlns="http://www.w3.org/2000/svg" xmlns:xlink="http://www.w3.org/1999/xlink" viewBox="0 0 1384.28 187.46"><defs><style>.cls-1{fill:url(#Unbenannter_Verlauf);}.cls-2{fill:#fff;}</style><linearGradient id="Unbenannter_Verlauf" x1="71.86" y1="62.32" x2="71.86" y2="244" gradientTransform="translate(0 -60.49)" gradientUnits="userSpaceOnUse"><stop offset="0" stop-color="#00f0dd"/><stop offset="0.17" stop-color="#2ec4e4"/><stop offset="0.47" stop-color="#787ef0"/><stop offset="0.72" stop-color="#ae4bf8"/><stop offset="0.9" stop-color="#cf2bfd"/><stop offset="1" stop-color="#dc1fff"/></linearGradient></defs><title>Element 3</title><g id="Ebene_2" data-name="Ebene 2"><g id="Ebene_1-2" data-name="Ebene 1"><g id="Ebene_2-2" data-name="Ebene 2"><g id="Ebene_1-2-2" data-name="Ebene 1-2"><g id="Ebene_2-2-2" data-name="Ebene 2-2"><g id="Ebene_1-2-2-2" data-name="Ebene 1-2-2"><path class="cls-1" d="M143.72,68.75A25,25,0,0,0,106.23,47.1a26.13,26.13,0,0,0-2.34,1.53,25,25,0,0,0-25-2.74,42,42,0,0,0,.34-5.26,40.65,40.65,0,0,0-1.25-10,61.12,61.12,0,0,0,19.21,3c20.29,0,37.36-9.38,42.3-22.09a3.86,3.86,0,0,0-2.21-5h-.09a3.85,3.85,0,0,0-4.89,2.2c-1.8,4.64-5.84,8-8.51,9.81a40.63,40.63,0,0,1-11.7,5.33,54,54,0,0,1-14.9,2,53.94,53.94,0,0,1-14.89-2,43.26,43.26,0,0,1-8.41-3.35A40.58,40.58,0,0,0,1.16,24.92a3.85,3.85,0,0,0,2.11,5l.15.06h0a3.86,3.86,0,0,0,4.87-2.15v0A32.9,32.9,0,0,1,51.41,10.32h0A35,35,0,0,1,55.2,12.2a33.2,33.2,0,0,1,13,13.9c.28.57.54,1.14.79,1.73A33.12,33.12,0,0,1,70.42,49.3a25,25,0,0,0-30.53-.67A25,25,0,0,0,0,68.75v1A25,25,0,0,0,12.5,90.4c.51.29,1,.57,1.57.84a25,25,0,0,0,14.67,32.17h0l.56.2A25,25,0,0,0,45.49,155c.76.24,1.54.45,2.32.62a25,25,0,1,0,48.1,0A25,25,0,0,0,115,125.93c-.17-.78-.38-1.56-.62-2.32a25,25,0,0,0,15.48-31.78v0c-.06-.19-.13-.37-.2-.56A25,25,0,0,0,143.72,68.75Zm-67.11-12,.22-.23a17.29,17.29,0,0,1,21.56-2.31A25,25,0,0,0,95.31,77.5a24.87,24.87,0,0,0-6.26,4.34A24.83,24.83,0,0,0,72.94,75,17.34,17.34,0,0,1,75,58.67h0V58.6a17.53,17.53,0,0,1,1.61-1.84Zm5.81,50.85a25.12,25.12,0,0,0-10.56,7.09,25.05,25.05,0,0,0-16-8.32A17.33,17.33,0,0,1,59.43,88l.22-.22A17.06,17.06,0,0,1,68.54,83a17.71,17.71,0,0,1,6.65,0,17.19,17.19,0,0,1,8.88,4.74c.08.07.15.15.22.22a25.57,25.57,0,0,0-2,4.81,25,25,0,0,0,.14,14.8ZM39.84,59.9a17.12,17.12,0,0,1,2.62-3.37,19.42,19.42,0,0,1,2.87-2.32,17.31,17.31,0,0,1,20.09,1c.51.41,1,.85,1.47,1.31l.22.23a25,25,0,0,0-2.65,16.51,23.75,23.75,0,0,0,.63,2.65A24.93,24.93,0,0,0,55.56,81c-.3.26-.59.53-.88.8l-.16-.15a25.31,25.31,0,0,0-6.11-4.19c-.44-.21-.89-.42-1.35-.61A24.88,24.88,0,0,0,41,75.24c-.81-.12-1.62-.19-2.43-.23a17.42,17.42,0,0,1-1.16-6.27A17.1,17.1,0,0,1,39.84,59.9ZM18,84.38l-.09.11a15.28,15.28,0,0,1-1.87-1A17.16,17.16,0,0,1,12.78,81l-.28-.29a17.18,17.18,0,0,1-4.78-12q0-.72.06-1.47A17.1,17.1,0,0,1,12.5,56.83l.28-.3a17.29,17.29,0,0,1,21.56-2.32,25,25,0,0,0-3.61,21.71,25,25,0,0,0-6.08,2.62A25.61,25.61,0,0,0,18,84.38Zm14.86,32.25a17.26,17.26,0,0,1-7.55-28.85c.33-.33.67-.64,1-.94a12.93,12.93,0,0,1,1.31-1h0A17.12,17.12,0,0,1,34.17,83l.71-.13h0a20.69,20.69,0,0,1,2.61-.19,17.16,17.16,0,0,1,7.12,1.52,20.34,20.34,0,0,1,2,1.1,18.08,18.08,0,0,1,3,2.44l.21.22a25.57,25.57,0,0,0-2,4.81,24.91,24.91,0,0,0-1,7.18,24.44,24.44,0,0,0,.94,6.81,25,25,0,0,0-15,9.86ZM51.2,148.4a17.27,17.27,0,0,1,3.93-34.31,17,17,0,0,1,2.65.51h0a17.13,17.13,0,0,1,7.55,4.4,17.86,17.86,0,0,1,2.18,2.65,24,24,0,0,0-1,16.38A25.06,25.06,0,0,0,51.2,148.4Zm32.87,26.29a17.27,17.27,0,0,1-28.26-18.6,17,17,0,0,1,3.84-5.82,17.27,17.27,0,1,1,24.42,24.42Zm22.16-36.07a17.26,17.26,0,0,1-3.41,4.83,17.08,17.08,0,0,1-10.3,5A25.06,25.06,0,0,0,77.17,138a23,23,0,0,0-2.62-.42,17.54,17.54,0,0,1,0-12.79,16.84,16.84,0,0,1,1.67-3.17A17.56,17.56,0,0,1,78.39,119a17.17,17.17,0,0,1,7.55-4.42h0a17.4,17.4,0,0,1,20.29,9.3c.18.37.34.75.49,1.13a17.38,17.38,0,0,1-.49,13.64Zm12.21-26.42a17,17,0,0,1-7.55,4.43,24.86,24.86,0,0,0-20.28-10.39h-.49a17.46,17.46,0,0,1,0-12.53A17,17,0,0,1,93.8,88l.22-.22a17.12,17.12,0,0,1,12.21-5.06,20.69,20.69,0,0,1,2.61.19h0l.71.13a16.9,16.9,0,0,1,6.56,2.78h0a15.87,15.87,0,0,1,2.33,2,17.26,17.26,0,0,1,0,24.41h0ZM130.94,81a17,17,0,0,1-5.1,3.53c-.28-.35-.57-.7-.86-1A24.86,24.86,0,0,0,106.23,75h-1.08a18.13,18.13,0,0,0-2.44.22,17.35,17.35,0,0,1-1.25-6.49,17.16,17.16,0,0,1,2.43-8.85,16.61,16.61,0,0,1,2.34-3.07l.28-.3a19.42,19.42,0,0,1,2.87-2.32A17.3,17.3,0,0,1,131,81h-.06Z"/><path class="cls-2" d="M258.92,92.19h20.52v39.38a58.55,58.55,0,0,1-18.3,9.15,70.8,70.8,0,0,1-20.94,3.19,56.6,56.6,0,0,1-27.2-6.45,47.91,47.91,0,0,1-18.93-17.89,49.23,49.23,0,0,1-6.86-25.85,49.41,49.41,0,0,1,6.86-25.86A47.74,47.74,0,0,1,213.17,50a58,58,0,0,1,27.45-6.45,60,60,0,0,1,23.15,4.3,45.85,45.85,0,0,1,17.47,12.47L266.82,73.61a33.38,33.38,0,0,0-25.09-11,34.42,34.42,0,0,0-16.5,3.88,27.91,27.91,0,0,0-11.23,11,32.15,32.15,0,0,0-4,16.22,32,32,0,0,0,4,16.08,28.44,28.44,0,0,0,11.16,11,33.09,33.09,0,0,0,16.29,4,36.25,36.25,0,0,0,17.47-4.16Z"/><path class="cls-2" d="M359.38,144,340,116H318.63v28H295.39V43.53h43.47q13.35,0,23.17,4.45A34.43,34.43,0,0,1,377.17,60.6,34.83,34.83,0,0,1,382.48,80a32.71,32.71,0,0,1-20.66,31.71L384.34,144ZM353.5,67q-5.46-4.53-15.93-4.52H318.63v35h18.94q10.47,0,15.93-4.59T359,80Q359,71.51,353.5,67Z"/><path class="cls-2" d="M464.89,122.44H418.27L409.37,144H385.56L430.32,43.53h22.95L498.18,144H473.79Zm-7.31-17.65L441.65,66.34l-15.92,38.45Z"/><path class="cls-2" d="M570.43,48a33.24,33.24,0,0,1,20.45,32,34.86,34.86,0,0,1-5.31,19.3,33.71,33.71,0,0,1-15.14,12.62q-9.82,4.38-23.17,4.38H527V144H503.79V43.53h43.47Q560.61,43.53,570.43,48ZM561.9,92.8q5.45-4.51,5.45-12.84T561.9,67q-5.46-4.53-15.93-4.52H527V97.33h19q10.44,0,15.9-4.52Z"/><path class="cls-2" d="M680.16,125.3V144H604.4V43.53h75.89V62.18H627.5V84h46.62v18.07H627.5v23.24Z"/></g></g></g></g><path class="cls-2" d="M747.05,136.89q-10-3.73-15.6-9.69l3.31-5.38a38.93,38.93,0,0,0,14.3,9,52.07,52.07,0,0,0,18.9,3.47q14.37,0,21.7-5.38t7.33-14c0-4.44-1.29-8-3.88-10.62a25.63,25.63,0,0,0-9.63-6.08A133,133,0,0,0,768,93.8a154,154,0,0,1-17.75-5.23,28.38,28.38,0,0,1-11.36-7.86q-4.67-5.31-4.67-14.22a23.89,23.89,0,0,1,3.88-13.23q3.88-6,11.86-9.56t19.91-3.53a57,57,0,0,1,16.38,2.4,49,49,0,0,1,13.95,6.51l-2.74,5.81a46.55,46.55,0,0,0-13.29-6.23,50.62,50.62,0,0,0-14.3-2.12q-14,0-21.13,5.51a17.24,17.24,0,0,0-7.19,14.3q0,6.65,3.88,10.61A25.85,25.85,0,0,0,755,83.05a150.64,150.64,0,0,0,15.67,4.53,148,148,0,0,1,17.68,5.23,29.08,29.08,0,0,1,11.28,7.71q4.68,5.17,4.67,13.94a23.19,23.19,0,0,1-4,13.16q-4,6-12.14,9.49t-20.13,3.53A59.11,59.11,0,0,1,747.05,136.89Z"/><path class="cls-2" d="M892.14,133.43v6.51H822.72V40.87H890v6.51H830.05V86.44h53.61v6.37H830.05v40.62Z"/><path class="cls-2" d="M982.26,139.94l-24-33.12a75,75,0,0,1-9.77.71H919.74v32.41h-7.33V40.87h36.08q19,0,29.75,8.85T989,74.27Q989,86,982.91,94t-17.46,11.25l25.15,34.68Zm-33.77-38.78q16.1,0,24.57-7t8.48-19.89q0-12.87-8.48-19.88t-24.57-7H919.74v53.78Z"/><path class="cls-2" d="M1089.77,40.87l-44.84,99.07h-7.33L992.75,40.87h8l40.68,89.73,40.68-89.73Z"/><path class="cls-2" d="M1099.55,40.87h7.33v99.07h-7.33Z"/><path class="cls-2" d="M1151.36,134.13a48.45,48.45,0,0,1-18.68-18,49.35,49.35,0,0,1-6.83-25.75,49.39,49.39,0,0,1,6.83-25.76,48.52,48.52,0,0,1,18.68-18A54.52,54.52,0,0,1,1178,40.17a56.63,56.63,0,0,1,20.12,3.46,41.82,41.82,0,0,1,15.67,10.26l-4.6,4.67q-12.08-11.75-30.91-11.74a47.15,47.15,0,0,0-23,5.66,41.78,41.78,0,0,0-16.25,15.64,43,43,0,0,0-5.89,22.29,43,43,0,0,0,5.89,22.28,41.71,41.71,0,0,0,16.25,15.64,47,47,0,0,0,23,5.66q18.69,0,30.91-11.88l4.6,4.67a42.32,42.32,0,0,1-15.74,10.33,55.76,55.76,0,0,1-20,3.53A54.41,54.41,0,0,1,1151.36,134.13Z"/><path class="cls-2" d="M1301.35,133.43v6.51h-69.43V40.87h67.27v6.51h-59.93V86.44h53.61v6.37h-53.61v40.62Z"/><path class="cls-2" d="M1327,136.89q-10-3.73-15.59-9.69l3.31-5.38a38.93,38.93,0,0,0,14.3,9,52,52,0,0,0,18.9,3.47q14.37,0,21.7-5.38t7.33-14c0-4.44-1.29-8-3.88-10.62a25.7,25.7,0,0,0-9.63-6.08,133,133,0,0,0-15.52-4.39,154,154,0,0,1-17.75-5.23,28.31,28.31,0,0,1-11.36-7.86q-4.66-5.31-4.67-14.22A23.89,23.89,0,0,1,1318,53.26q3.88-6,11.86-9.56t19.91-3.53a57.07,57.07,0,0,1,16.38,2.4,48.81,48.81,0,0,1,13.94,6.51l-2.73,5.81a46.55,46.55,0,0,0-13.29-6.23,50.62,50.62,0,0,0-14.3-2.12q-13.95,0-21.13,5.51a17.21,17.21,0,0,0-7.19,14.3q0,6.65,3.88,10.61a25.85,25.85,0,0,0,9.63,6.09,150.64,150.64,0,0,0,15.67,4.53,148,148,0,0,1,17.68,5.23,29.16,29.16,0,0,1,11.28,7.71q4.67,5.17,4.67,13.94a23.27,23.27,0,0,1-4,13.16q-4,6-12.15,9.49t-20.12,3.53A59.21,59.21,0,0,1,1327,136.89Z"/></g></g></svg>