<svg xmlns="http://www.w3.org/2000/svg" xmlns:xlink="http://www.w3.org/1999/xlink" viewBox="0 0 680.29 187.46"><defs><style>.cls-1{fill:url(#Unbenannter_Verlauf_7);}</style><linearGradient id="Unbenannter_Verlauf_7" x1="71.86" y1="1.82" x2="71.86" y2="183.5" gradientUnits="userSpaceOnUse"><stop offset="0" stop-color="#00f0dd"/><stop offset="0.17" stop-color="#2ec4e4"/><stop offset="0.47" stop-color="#787ef0"/><stop offset="0.72" stop-color="#ae4bf8"/><stop offset="0.9" stop-color="#cf2bfd"/><stop offset="1" stop-color="#dc1fff"/></linearGradient></defs><title>Element 8</title><g id="Ebene_2" data-name="Ebene 2"><g id="Ebene_1-2" data-name="Ebene 1"><path class="cls-1" d="M143.72,68.74a25,25,0,0,0-37.49-21.65,24.11,24.11,0,0,0-2.34,1.53,25,25,0,0,0-25-2.74,41.49,41.49,0,0,0,.34-5.26,41,41,0,0,0-1.25-10,61.35,61.35,0,0,0,19.21,3c20.29,0,37.36-9.38,42.3-22.09a3.86,3.86,0,0,0-2.3-5h0a3.85,3.85,0,0,0-4.89,2.2c-1.8,4.64-5.84,8-8.51,9.81a40.79,40.79,0,0,1-11.7,5.33,54,54,0,0,1-14.9,2,53.93,53.93,0,0,1-14.89-2,43.39,43.39,0,0,1-8.41-3.35A40.8,40.8,0,0,0,61.6,7.12a40,40,0,0,0-8.1-4.31A40.66,40.66,0,0,0,1.16,24.91,3.86,3.86,0,0,0,3.42,30h0a3.86,3.86,0,0,0,4.87-2.15l0-.06A32.91,32.91,0,0,1,51.43,10.31a34,34,0,0,1,3.77,1.88,33.13,33.13,0,0,1,13,13.9c.28.57.54,1.14.79,1.73a33.13,33.13,0,0,1,1.43,21.47,25,25,0,0,0-30.53-.67A25,25,0,0,0,0,68.74c0,.33,0,.67,0,1A25,25,0,0,0,12.5,90.39c.51.29,1,.57,1.57.84A25,25,0,0,0,29.3,123.6a25,25,0,0,0,18.51,32.05,25,25,0,1,0,48.1,0,25,25,0,0,0,18.51-32.05,25,25,0,0,0,15.23-32.37A25,25,0,0,0,143.72,68.74Zm-67.11-12,.22-.23A17.29,17.29,0,0,1,98.39,54.2a25,25,0,0,0-3.08,23.29,24.77,24.77,0,0,0-6.26,4.34,25,25,0,0,0-10.42-5.92,24.76,24.76,0,0,0-5.69-.9,17.34,17.34,0,0,1-1.08-4.52,17.06,17.06,0,0,1,0-3.5A17.13,17.13,0,0,1,75,58.66h0l0-.07A17.06,17.06,0,0,1,76.61,56.75Zm5.81,50.85a25.14,25.14,0,0,0-10.56,7.09,24.94,24.94,0,0,0-16-8.32,17.39,17.39,0,0,1-.05-12.66A17.23,17.23,0,0,1,59.43,88l.22-.22A17.09,17.09,0,0,1,68.54,83a17.38,17.38,0,0,1,3.32-.32,17.56,17.56,0,0,1,3.33.32,17.1,17.1,0,0,1,8.88,4.74c.08.07.15.15.22.22a24.81,24.81,0,0,0-2,4.81,25,25,0,0,0,.14,14.8ZM39.84,59.89a17.55,17.55,0,0,1,2.62-3.37,18.57,18.57,0,0,1,2.87-2.32,17.29,17.29,0,0,1,20.09,1,18.11,18.11,0,0,1,1.47,1.31l.22.23a25,25,0,0,0-2.65,16.51,25.56,25.56,0,0,0,.63,2.65A24.84,24.84,0,0,0,55.56,81c-.3.26-.59.53-.88.8l-.16-.15a25,25,0,0,0-6.11-4.19c-.44-.21-.89-.42-1.35-.61A25,25,0,0,0,41,75.23,24.3,24.3,0,0,0,38.57,75a17.4,17.4,0,0,1-1.16-6.27A17.12,17.12,0,0,1,39.84,59.89ZM18,84.37l-.09.11a16.71,16.71,0,0,1-1.87-1A17.37,17.37,0,0,1,12.78,81l-.28-.29A17.18,17.18,0,0,1,7.72,68.74q0-.73.06-1.47A17.11,17.11,0,0,1,12.5,56.82l.28-.3A17.29,17.29,0,0,1,34.34,54.2a25,25,0,0,0-3.61,21.71,24.94,24.94,0,0,0-6.08,2.62A25.24,25.24,0,0,0,18,84.37Zm14.86,32.25a17.26,17.26,0,0,1-7.55-28.85c.33-.33.67-.64,1-.94s.86-.7,1.31-1h0A17,17,0,0,1,34.17,83l.71-.13h0a18.87,18.87,0,0,1,2.61-.19,17.21,17.21,0,0,1,7.12,1.52,18.39,18.39,0,0,1,2,1.1,17.65,17.65,0,0,1,3.05,2.44l.21.22a25.44,25.44,0,0,0-2,4.81,25.08,25.08,0,0,0-1,7.18,24.67,24.67,0,0,0,.94,6.81A25,25,0,0,0,32.83,116.62ZM51.2,148.39a17.27,17.27,0,0,1,0-34.33,17.14,17.14,0,0,1,6.58.53h0A17.08,17.08,0,0,1,65.33,119a17.64,17.64,0,0,1,2.18,2.65,25.52,25.52,0,0,0-1,2.75,25.17,25.17,0,0,0,0,13.63A25,25,0,0,0,51.2,148.39Zm32.87,26.29a17.27,17.27,0,0,1-28.26-18.6,17,17,0,0,1,3.84-5.82,17.3,17.3,0,0,1,28.27,5.82,17.37,17.37,0,0,1,1.21,6.39A17.12,17.12,0,0,1,84.07,174.68Zm22.16-36.07a17.52,17.52,0,0,1-3.41,4.83,17.15,17.15,0,0,1-10.3,4.95A25,25,0,0,0,77.17,138a22.7,22.7,0,0,0-2.62-.42,17.5,17.5,0,0,1,0-12.79,16.84,16.84,0,0,1,1.67-3.17A17.57,17.57,0,0,1,78.39,119a17.19,17.19,0,0,1,7.55-4.42h0a17.14,17.14,0,0,1,6.58-.53,17.09,17.09,0,0,1,10.3,5,17.31,17.31,0,0,1,3.41,4.83c.18.37.34.75.49,1.13a17.39,17.39,0,0,1-.49,13.64Zm12.21-26.42a17.1,17.1,0,0,1-7.55,4.43,24.89,24.89,0,0,0-20.28-10.39h-.49a17.44,17.44,0,0,1,0-12.53A17.07,17.07,0,0,1,93.8,88l.22-.22a17.08,17.08,0,0,1,12.21-5.06,18.87,18.87,0,0,1,2.61.19h0l.71.13a16.9,16.9,0,0,1,6.56,2.78h0a16.68,16.68,0,0,1,2.33,2,17.26,17.26,0,0,1,0,24.42ZM130.94,81a17,17,0,0,1-5.1,3.53c-.28-.35-.57-.7-.86-1A24.85,24.85,0,0,0,106.23,75c-.36,0-.72,0-1.08,0a24.3,24.3,0,0,0-2.44.22,17.31,17.31,0,0,1-1.25-6.49,17.12,17.12,0,0,1,2.43-8.85,16.85,16.85,0,0,1,2.34-3.07l.28-.3a18.57,18.57,0,0,1,2.87-2.32A17.36,17.36,0,0,1,125,52.62a17.4,17.4,0,0,1,6,3.9,17.27,17.27,0,0,1,0,24.43Z"/><path d="M258.92,92.18h20.52v39.38a58.84,58.84,0,0,1-18.3,9.15,71.24,71.24,0,0,1-20.94,3.19A56.7,56.7,0,0,1,213,137.45a48,48,0,0,1-18.93-17.89,49.29,49.29,0,0,1-6.86-25.85,49.35,49.35,0,0,1,6.86-25.86A47.67,47.67,0,0,1,213.17,50a57.8,57.8,0,0,1,27.45-6.45,60,60,0,0,1,23.15,4.3,45.83,45.83,0,0,1,17.47,12.47L266.82,73.6a33.35,33.35,0,0,0-25.09-10.95,34.31,34.31,0,0,0-16.5,3.88,27.81,27.81,0,0,0-11.23,11,32.23,32.23,0,0,0-4,16.22,31.94,31.94,0,0,0,4,16.08,28.43,28.43,0,0,0,11.16,11,33,33,0,0,0,16.29,4,36.34,36.34,0,0,0,17.47-4.16Z"/><path d="M359.38,144,340,116H318.63v28H295.39V43.52h43.47q13.35,0,23.17,4.45a34.42,34.42,0,0,1,15.14,12.62A34.77,34.77,0,0,1,382.48,80a32.71,32.71,0,0,1-20.66,31.71L384.34,144ZM353.5,67q-5.46-4.53-15.93-4.52H318.63v35h18.94q10.47,0,15.93-4.59T359,80Q359,71.5,353.5,67Z"/><path d="M464.89,122.43H418.27L409.37,144H385.56L430.32,43.52h22.95L498.18,144H473.79Zm-7.31-17.65L441.65,66.33l-15.92,38.45Z"/><path d="M570.43,48a34.42,34.42,0,0,1,15.14,12.62A34.77,34.77,0,0,1,590.88,80a34.89,34.89,0,0,1-5.31,19.3,33.84,33.84,0,0,1-15.14,12.62q-9.82,4.38-23.17,4.38H527V144H503.79V43.52h43.47Q560.61,43.52,570.43,48ZM561.9,92.8q5.45-4.51,5.45-12.84T561.9,67q-5.46-4.53-15.93-4.52H527V97.32H546Q556.44,97.32,561.9,92.8Z"/><path d="M680.16,125.29V144H604.4V43.52h75.89V62.17H627.5V84h46.62v18.07H627.5v23.24Z"/></g></g></svg>