<svg xmlns="http://www.w3.org/2000/svg" xmlns:xlink="http://www.w3.org/1999/xlink" viewBox="0 0 478.91 340.83"><defs><style>.cls-1{fill:url(#Neues_Verlaufsfeld_1);}.cls-2{fill:#fff;}.cls-3{fill:url(#Neues_Verlaufsfeld_4);}.cls-4{fill:url(#Neues_Verlaufsfeld_4-2);}.cls-5{fill:url(#Neues_Verlaufsfeld_4-3);}.cls-6{fill:url(#Neues_Verlaufsfeld_1-2);}.cls-7{fill:url(#Neues_Verlaufsfeld_1-3);}.cls-8{fill:url(#Neues_Verlaufsfeld_4-4);}.cls-9{fill:url(#Neues_Verlaufsfeld_4-5);}.cls-10{fill:none;stroke:#fff;stroke-miterlimit:10;stroke-width:2px;stroke-dasharray:5;}</style><linearGradient id="Neues_Verlaufsfeld_1" y1="285.17" x2="305.33" y2="285.17" gradientUnits="userSpaceOnUse"><stop offset="0" stop-color="#00f0dd"/><stop offset="0.02" stop-color="#05ebde"/><stop offset="0.38" stop-color="#6095ec"/><stop offset="0.68" stop-color="#a355f6"/><stop offset="0.89" stop-color="#cc2efd"/><stop offset="1" stop-color="#dc1fff"/></linearGradient><linearGradient id="Neues_Verlaufsfeld_4" x1="89.91" y1="265.86" x2="97.08" y2="-173.1" gradientUnits="userSpaceOnUse"><stop offset="0" stop-color="#3affff"/><stop offset="1" stop-color="#16ff64"/></linearGradient><linearGradient id="Neues_Verlaufsfeld_4-2" x1="151.99" y1="248.58" x2="156.49" y2="-26.66" xlink:href="#Neues_Verlaufsfeld_4"/><linearGradient id="Neues_Verlaufsfeld_4-3" x1="213.09" y1="250.44" x2="218" y2="-50.26" xlink:href="#Neues_Verlaufsfeld_4"/><linearGradient id="Neues_Verlaufsfeld_1-2" x1="399.72" y1="95.25" x2="399.72" y2="331.68" xlink:href="#Neues_Verlaufsfeld_1"/><linearGradient id="Neues_Verlaufsfeld_1-3" x1="398.73" y1="95.25" x2="398.73" y2="331.68" xlink:href="#Neues_Verlaufsfeld_1"/><linearGradient id="Neues_Verlaufsfeld_4-4" x1="30.14" y1="265.45" x2="37.64" y2="-193.53" xlink:href="#Neues_Verlaufsfeld_4"/><linearGradient id="Neues_Verlaufsfeld_4-5" x1="272.18" y1="246.93" x2="276.3" y2="-5.15" xlink:href="#Neues_Verlaufsfeld_4"/></defs><title>Element 5</title><g id="Ebene_2" data-name="Ebene 2"><g id="Ebene_5" data-name="Ebene 5"><rect class="cls-1" y="233.83" width="305.33" height="102.67" rx="12" ry="12"/><rect class="cls-2" x="36.08" y="260.42" width="233.5" height="15.5" rx="7.75" ry="7.75"/><rect class="cls-2" x="203.33" y="284.92" width="64.75" height="15.5" rx="7.75" ry="7.75"/><rect class="cls-2" x="180.33" y="285.92" width="17.5" height="15.5" rx="7.75" ry="7.75"/><rect class="cls-2" x="154.58" y="285.42" width="17.5" height="15.5" rx="7.75" ry="7.75"/><rect class="cls-3" x="69.24" y="72.5" width="45.22" height="148.88" rx="21.17" ry="21.17"/><rect class="cls-4" x="130.79" y="104.17" width="45.22" height="115.92" rx="21.17" ry="21.17"/><rect class="cls-5" x="192.49" y="36.5" width="45.22" height="182.33" rx="21.17" ry="21.17"/><path class="cls-6" d="M452.84,177.22a61.71,61.71,0,0,1-107.34.61,49.26,49.26,0,0,0-25,42.74v71.11a49.29,49.29,0,0,0,49.15,49.15h60.08a49.3,49.3,0,0,0,49.15-49.15V220.57A49.27,49.27,0,0,0,452.84,177.22Z"/><circle class="cls-7" cx="398.73" cy="138.32" r="55.16"/><rect class="cls-8" x="9.17" y="107.79" width="45.22" height="114.33" rx="21.17" ry="21.17"/><rect class="cls-9" x="251.44" y="46.17" width="45.22" height="172.25" rx="21.17" ry="21.17"/><circle class="cls-2" cx="30.58" cy="73.75" r="8.25"/><circle class="cls-2" cx="91.75" cy="41.42" r="8.25"/><circle class="cls-2" cx="151.92" cy="80.75" r="8.25"/><circle class="cls-2" cx="215.08" cy="8.25" r="8.25"/><circle class="cls-2" cx="273.58" cy="19.42" r="8.25"/><line class="cls-10" x1="43.17" y1="63.67" x2="76.77" y2="45.73"/><line class="cls-10" x1="106.33" y1="45.6" x2="138.83" y2="68.67"/><line class="cls-10" x1="161.83" y1="67.54" x2="198.58" y2="11.67"/><line class="cls-10" x1="232.71" y1="8.92" x2="257.46" y2="16.04"/></g></g></svg>