<svg xmlns="http://www.w3.org/2000/svg" xmlns:xlink="http://www.w3.org/1999/xlink" viewBox="0 0 426.56 468.45"><defs><style>.cls-1,.cls-3{fill:none;}.cls-1{stroke:#fff;stroke-miterlimit:10;stroke-width:4px;stroke-dasharray:10;}.cls-2{fill:#fff;}.cls-4{fill:url(#Neues_Verlaufsfeld_1);}.cls-5{fill:url(#Neues_Verlaufsfeld_1-2);}.cls-6{fill:url(#Neues_Verlaufsfeld_1-3);}.cls-7{fill:url(#Neues_Verlaufsfeld_1-4);}.cls-8{fill:url(#Neues_Verlaufsfeld_1-5);}.cls-9{fill:url(#Neues_Verlaufsfeld_1-6);}</style><linearGradient id="Neues_Verlaufsfeld_1" x1="40.82" y1="65.12" x2="79.07" y2="197.09" gradientUnits="userSpaceOnUse"><stop offset="0" stop-color="#00f0dd"/><stop offset="0.02" stop-color="#05ebde"/><stop offset="0.38" stop-color="#6095ec"/><stop offset="0.68" stop-color="#a355f6"/><stop offset="0.89" stop-color="#cc2efd"/><stop offset="1" stop-color="#dc1fff"/></linearGradient><linearGradient id="Neues_Verlaufsfeld_1-2" x1="59.06" y1="-49.24" x2="59.06" y2="298.82" xlink:href="#Neues_Verlaufsfeld_1"/><linearGradient id="Neues_Verlaufsfeld_1-3" x1="86.08" y1="339" x2="124.33" y2="470.97" xlink:href="#Neues_Verlaufsfeld_1"/><linearGradient id="Neues_Verlaufsfeld_1-4" x1="104.32" y1="224.63" x2="104.32" y2="572.69" xlink:href="#Neues_Verlaufsfeld_1"/><linearGradient id="Neues_Verlaufsfeld_1-5" x1="347.78" y1="144.4" x2="386.03" y2="276.37" xlink:href="#Neues_Verlaufsfeld_1"/><linearGradient id="Neues_Verlaufsfeld_1-6" x1="366.02" y1="30.03" x2="366.02" y2="378.09" xlink:href="#Neues_Verlaufsfeld_1"/></defs><title>Element 4</title><g id="Ebene_2" data-name="Ebene 2"><g id="Ebene_5" data-name="Ebene 5"><line class="cls-1" x1="187.82" y1="422.86" x2="264.67" y2="401.58"/><circle class="cls-2" cx="202.78" cy="75.38" r="18.21"/><circle class="cls-2" cx="29.18" cy="250.84" r="18.21"/><circle class="cls-2" cx="169.51" cy="205.3" r="18.21"/><line class="cls-1" x1="323.04" y1="362.08" x2="359.84" y2="296.56"/><line class="cls-1" x1="135.4" y1="97.22" x2="171.83" y2="84.12"/><line class="cls-1" x1="35.69" y1="301.49" x2="46.56" y2="343.4"/><circle class="cls-2" cx="299.34" cy="382.25" r="18.21"/><line class="cls-3" x1="272.85" y1="287.46" x2="285.12" y2="343.59"/><line class="cls-1" x1="199.53" y1="104.75" x2="180.1" y2="179.47"/><line class="cls-1" x1="62.64" y1="249.17" x2="140.33" y2="224.08"/><line class="cls-1" x1="189.77" y1="227.42" x2="283.17" y2="356.23"/><line class="cls-1" x1="239.67" y1="88.58" x2="294.88" y2="144.9"/><line class="cls-1" x1="194.6" y1="206.05" x2="289.39" y2="223.71"/><line class="cls-1" x1="24.72" y1="220.73" x2="23.6" y2="207.16"/><path class="cls-4" d="M99.92,71a46.6,46.6,0,0,1-81.06.46A37.18,37.18,0,0,0,0,103.76v53.7a37.22,37.22,0,0,0,37.12,37.12H82.49a37.22,37.22,0,0,0,37.11-37.12v-53.7A37.2,37.2,0,0,0,99.92,71Z"/><circle class="cls-5" cx="59.06" cy="41.65" r="41.65"/><path class="cls-6" d="M145.18,344.9a46.6,46.6,0,0,1-81.06.46,37.2,37.2,0,0,0-18.86,32.28v53.7a37.22,37.22,0,0,0,37.11,37.11h45.38a37.22,37.22,0,0,0,37.11-37.11v-53.7A37.21,37.21,0,0,0,145.18,344.9Z"/><circle class="cls-7" cx="104.32" cy="315.53" r="41.65"/><path class="cls-8" d="M406.88,150.3a46.6,46.6,0,0,1-81.06.46A37.19,37.19,0,0,0,307,183v53.71a37.22,37.22,0,0,0,37.11,37.11h45.38a37.22,37.22,0,0,0,37.11-37.11V183A37.2,37.2,0,0,0,406.88,150.3Z"/><circle class="cls-9" cx="366.02" cy="120.93" r="41.65"/></g></g></svg>