<svg xmlns="http://www.w3.org/2000/svg" xmlns:xlink="http://www.w3.org/1999/xlink" viewBox="0 0 556.05 515.69"><defs><style>.cls-1{fill:url(#Neues_Verlaufsfeld_4);}.cls-2{fill:url(#Neues_Verlaufsfeld_1);}.cls-3{fill:url(#Neues_Verlaufsfeld_1-2);}.cls-4{fill:url(#Neues_Verlaufsfeld_4-2);}.cls-5{fill:url(#Neues_Verlaufsfeld_4-3);}.cls-6{fill:url(#Neues_Verlaufsfeld_4-4);}</style><linearGradient id="Neues_Verlaufsfeld_4" x1="469.76" y1="231.03" x2="621.13" y2="231.03" gradientTransform="translate(871.95 -206.34) rotate(108.43)" gradientUnits="userSpaceOnUse"><stop offset="0" stop-color="#3affff"/><stop offset="1" stop-color="#16ff64"/></linearGradient><linearGradient id="Neues_Verlaufsfeld_1" x1="256.19" y1="153.67" x2="346.43" y2="465.06" gradientUnits="userSpaceOnUse"><stop offset="0" stop-color="#00f0dd"/><stop offset="0.02" stop-color="#05ebde"/><stop offset="0.38" stop-color="#6095ec"/><stop offset="0.68" stop-color="#a355f6"/><stop offset="0.89" stop-color="#cc2efd"/><stop offset="1" stop-color="#dc1fff"/></linearGradient><linearGradient id="Neues_Verlaufsfeld_1-2" x1="299.21" y1="-116.18" x2="299.21" y2="705.08" xlink:href="#Neues_Verlaufsfeld_1"/><linearGradient id="Neues_Verlaufsfeld_4-2" x1="258.07" y1="-80.91" x2="65.67" y2="338.55" gradientTransform="translate(23.46 -26.07) rotate(9.6)" xlink:href="#Neues_Verlaufsfeld_4"/><linearGradient id="Neues_Verlaufsfeld_4-3" x1="359.53" y1="406.7" x2="556.49" y2="406.7" gradientTransform="translate(948.39 162.85) rotate(113.86)" xlink:href="#Neues_Verlaufsfeld_4"/><linearGradient id="Neues_Verlaufsfeld_4-4" x1="166.55" y1="414.28" x2="313.82" y2="414.28" gradientTransform="matrix(-0.5, 0.87, -0.87, -0.5, 638.72, 433.03)" xlink:href="#Neues_Verlaufsfeld_4"/></defs><title>Element 6</title><g id="Ebene_2" data-name="Ebene 2"><g id="Ebene_6" data-name="Ebene 6"><circle class="cls-1" cx="480.34" cy="238.11" r="75.68"/><path class="cls-2" d="M395.63,167.6a110,110,0,0,1-191.27,1.09,87.75,87.75,0,0,0-44.5,76.14V371.55a87.84,87.84,0,0,0,87.58,87.58H354.5a87.84,87.84,0,0,0,87.58-87.58V244.83A87.79,87.79,0,0,0,395.63,167.6Z"/><circle class="cls-3" cx="299.21" cy="98.28" r="98.28"/><circle class="cls-4" cx="139.99" cy="159.66" r="139.97"/><circle class="cls-5" cx="391.18" cy="417.19" r="98.48"/><circle class="cls-6" cx="159.85" cy="433.9" r="73.63"/></g></g></svg>