<svg xmlns="http://www.w3.org/2000/svg" xmlns:xlink="http://www.w3.org/1999/xlink" viewBox="0 0 517.53 484.15"><defs><style>.cls-1{fill:url(#Neues_Verlaufsfeld_1);}.cls-2{fill:url(#Neues_Verlaufsfeld_1-2);}.cls-3{fill:url(#Neues_Verlaufsfeld_1-3);}.cls-4{fill:url(#Neues_Verlaufsfeld_1-4);}.cls-5{fill:url(#Neues_Verlaufsfeld_1-5);}.cls-6{fill:url(#Neues_Verlaufsfeld_1-6);}.cls-7{fill:url(#Neues_Verlaufsfeld_4);}</style><linearGradient id="Neues_Verlaufsfeld_1" x1="115.34" y1="235.74" x2="149.63" y2="354.08" gradientUnits="userSpaceOnUse"><stop offset="0" stop-color="#00f0dd"/><stop offset="0.02" stop-color="#05ebde"/><stop offset="0.38" stop-color="#6095ec"/><stop offset="0.68" stop-color="#a355f6"/><stop offset="0.89" stop-color="#cc2efd"/><stop offset="1" stop-color="#dc1fff"/></linearGradient><linearGradient id="Neues_Verlaufsfeld_1-2" x1="131.69" y1="133.19" x2="131.69" y2="445.29" xlink:href="#Neues_Verlaufsfeld_1"/><linearGradient id="Neues_Verlaufsfeld_1-3" x1="244.01" y1="234.41" x2="278.3" y2="352.74" xlink:href="#Neues_Verlaufsfeld_1"/><linearGradient id="Neues_Verlaufsfeld_1-4" x1="260.36" y1="133.19" x2="260.36" y2="445.29" xlink:href="#Neues_Verlaufsfeld_1"/><linearGradient id="Neues_Verlaufsfeld_1-5" x1="374.34" y1="233.74" x2="408.63" y2="352.08" xlink:href="#Neues_Verlaufsfeld_1"/><linearGradient id="Neues_Verlaufsfeld_1-6" x1="390.69" y1="133.19" x2="390.69" y2="445.29" xlink:href="#Neues_Verlaufsfeld_1"/><linearGradient id="Neues_Verlaufsfeld_4" x1="372.54" y1="659.84" x2="160.05" y2="-226.99" gradientUnits="userSpaceOnUse"><stop offset="0" stop-color="#3affff"/><stop offset="1" stop-color="#16ff64"/></linearGradient></defs><title>Element 3</title><g id="Ebene_2" data-name="Ebene 2"><g id="Ebene_4" data-name="Ebene 4"><path class="cls-1" d="M168.33,241a41.79,41.79,0,0,1-72.69.42,33.36,33.36,0,0,0-16.91,28.94v48.15A33.38,33.38,0,0,0,112,351.82H152.7A33.38,33.38,0,0,0,186,318.54V270.39A33.37,33.37,0,0,0,168.33,241Z"/><circle class="cls-2" cx="131.69" cy="214.69" r="37.35"/><path class="cls-3" d="M297,239.7a41.79,41.79,0,0,1-72.69.41,33.35,33.35,0,0,0-16.91,28.94v48.16a33.38,33.38,0,0,0,33.28,33.28h40.69a33.38,33.38,0,0,0,33.28-33.28V269.05A33.37,33.37,0,0,0,297,239.7Z"/><circle class="cls-4" cx="260.36" cy="213.36" r="37.35"/><path class="cls-5" d="M427.33,239a41.79,41.79,0,0,1-72.69.42,33.36,33.36,0,0,0-16.91,28.94v48.15A33.38,33.38,0,0,0,371,349.82H411.7A33.38,33.38,0,0,0,445,316.54V268.39A33.37,33.37,0,0,0,427.33,239Z"/><circle class="cls-6" cx="390.69" cy="212.69" r="37.35"/><path class="cls-7" d="M477.76,120.62A258,258,0,0,0,122,39.77,256.17,256.17,0,0,0,25.15,149.92L0,142.56l18,56,49.25-36.38L40.82,154.5C88.27,54.32,200.56-3.39,313,22.16,443.14,51.72,524.93,181.61,495.37,311.7a241.42,241.42,0,0,1-119.7,158.45l8.1,14q6.66-3.66,13.15-7.73a258,258,0,0,0,80.84-355.8Z"/></g></g></svg>