<svg xmlns="http://www.w3.org/2000/svg" xmlns:xlink="http://www.w3.org/1999/xlink" viewBox="0 0 608.6 414.8"><defs><style>.cls-1{fill:url(#Unbenannter_Verlauf_58);}.cls-2{fill:url(#Neues_Verlaufsfeld_2);}.cls-3{fill:#fff;}.cls-4{fill:url(#Neues_Verlaufsfeld_2-2);}.cls-5{fill:url(#Neues_Verlaufsfeld_1);}.cls-6{fill:url(#Neues_Verlaufsfeld_1-2);}.cls-7{fill:url(#Neues_Verlaufsfeld_1-3);}.cls-8{fill:url(#Neues_Verlaufsfeld_1-4);}.cls-9{fill:url(#Neues_Verlaufsfeld_1-5);}.cls-10{fill:url(#Neues_Verlaufsfeld_1-6);}.cls-11{fill:url(#Neues_Verlaufsfeld_1-7);}.cls-12{fill:url(#Neues_Verlaufsfeld_1-8);}.cls-13{fill:url(#Neues_Verlaufsfeld_1-9);}.cls-14{fill:url(#Neues_Verlaufsfeld_1-10);}.cls-15{fill:url(#Neues_Verlaufsfeld_1-11);}.cls-16{fill:url(#Neues_Verlaufsfeld_1-12);}.cls-17{fill:url(#Neues_Verlaufsfeld_1-13);}.cls-18{fill:url(#Neues_Verlaufsfeld_1-14);}</style><linearGradient id="Unbenannter_Verlauf_58" x1="270.92" y1="288.41" x2="270.92" y2="-342.56" gradientUnits="userSpaceOnUse"><stop offset="0" stop-color="#00ffa3"/><stop offset="0.03" stop-color="#09f6a7"/><stop offset="0.39" stop-color="#629bcc"/><stop offset="0.68" stop-color="#a458e7"/><stop offset="0.89" stop-color="#cc2ff9"/><stop offset="1" stop-color="#dc1fff"/></linearGradient><linearGradient id="Neues_Verlaufsfeld_2" x1="177.73" y1="20.29" x2="177.73" y2="127.79" gradientUnits="userSpaceOnUse"><stop offset="0" stop-color="#00f0dd"/><stop offset="0.43" stop-color="#1cbaee"/><stop offset="0.81" stop-color="#3291fa"/><stop offset="1" stop-color="#3a81ff"/></linearGradient><linearGradient id="Neues_Verlaufsfeld_2-2" x1="289.39" y1="19.45" x2="289.39" y2="104.53" xlink:href="#Neues_Verlaufsfeld_2"/><linearGradient id="Neues_Verlaufsfeld_1" x1="307.82" y1="79.91" x2="307.82" y2="433.22" gradientUnits="userSpaceOnUse"><stop offset="0" stop-color="#00f0dd"/><stop offset="0.02" stop-color="#05ebde"/><stop offset="0.38" stop-color="#6095ec"/><stop offset="0.68" stop-color="#a355f6"/><stop offset="0.89" stop-color="#cc2efd"/><stop offset="1" stop-color="#dc1fff"/></linearGradient><linearGradient id="Neues_Verlaufsfeld_1-2" x1="331.91" y1="79.91" x2="331.91" y2="433.22" xlink:href="#Neues_Verlaufsfeld_1"/><linearGradient id="Neues_Verlaufsfeld_1-3" x1="322.72" y1="79.91" x2="322.72" y2="433.22" xlink:href="#Neues_Verlaufsfeld_1"/><linearGradient id="Neues_Verlaufsfeld_1-4" x1="370.58" y1="79.91" x2="370.58" y2="433.22" xlink:href="#Neues_Verlaufsfeld_1"/><linearGradient id="Neues_Verlaufsfeld_1-5" x1="211.14" y1="79.91" x2="211.14" y2="433.22" xlink:href="#Neues_Verlaufsfeld_1"/><linearGradient id="Neues_Verlaufsfeld_1-6" x1="360.89" y1="79.91" x2="360.89" y2="433.22" xlink:href="#Neues_Verlaufsfeld_1"/><linearGradient id="Neues_Verlaufsfeld_1-7" x1="280.73" y1="79.91" x2="280.73" y2="433.22" xlink:href="#Neues_Verlaufsfeld_1"/><linearGradient id="Neues_Verlaufsfeld_1-8" x1="169.71" y1="79.91" x2="169.71" y2="433.22" xlink:href="#Neues_Verlaufsfeld_1"/><linearGradient id="Neues_Verlaufsfeld_1-9" x1="235.8" y1="79.91" x2="235.8" y2="433.22" xlink:href="#Neues_Verlaufsfeld_1"/><linearGradient id="Neues_Verlaufsfeld_1-10" x1="256.14" y1="79.91" x2="256.14" y2="433.22" xlink:href="#Neues_Verlaufsfeld_1"/><linearGradient id="Neues_Verlaufsfeld_1-11" x1="305.46" y1="79.91" x2="305.46" y2="433.22" xlink:href="#Neues_Verlaufsfeld_1"/><linearGradient id="Neues_Verlaufsfeld_1-12" x1="279.24" y1="79.91" x2="279.24" y2="433.22" xlink:href="#Neues_Verlaufsfeld_1"/><linearGradient id="Neues_Verlaufsfeld_1-13" x1="561.95" y1="79.91" x2="561.95" y2="433.22" xlink:href="#Neues_Verlaufsfeld_1"/><linearGradient id="Neues_Verlaufsfeld_1-14" x1="304.3" y1="79.91" x2="304.3" y2="433.22" xlink:href="#Neues_Verlaufsfeld_1"/></defs><title>Element 1</title><g id="Ebene_2" data-name="Ebene 2"><g id="Ebene_2-2" data-name="Ebene 2"><path class="cls-1" d="M455.6,1.23,49.19,117.17a32.22,32.22,0,0,0-22.08,39.71l20.42,71.6C52.38,245.47,170,110.76,187,105.91l241-21c17-4.85,92.57,27,87.72,10l-20.42-71.6A32.23,32.23,0,0,0,455.6,1.23Z"/><path class="cls-2" d="M177.73,20.29A53.75,53.75,0,1,0,231.48,74,53.74,53.74,0,0,0,177.73,20.29Z"/><path class="cls-3" d="M195.86,96.05q-4.67,4.74-13.5,6.06v8.68H173v-8.36a49.35,49.35,0,0,1-11.1-2,31.94,31.94,0,0,1-8.69-4l5.09-11.42a34.67,34.67,0,0,0,18.06,5.4q8.92,0,8.92-4.46a3.7,3.7,0,0,0-2.54-3.48,47.11,47.11,0,0,0-8.18-2.38,78.16,78.16,0,0,1-10.32-2.86,17.3,17.3,0,0,1-7.11-4.88q-3-3.37-3-9.08A15.68,15.68,0,0,1,159,51.79q4.85-4.82,14-5.91v-8.6h9.38v8.45a45.7,45.7,0,0,1,8.57,1.56,31.54,31.54,0,0,1,7.31,3.05l-4.77,11.5a31.8,31.8,0,0,0-15.17-4.22q-4.62,0-6.73,1.36a4.13,4.13,0,0,0-2.11,3.56c0,1.46.83,2.56,2.5,3.29A45.37,45.37,0,0,0,180,68.09,75.54,75.54,0,0,1,190.38,71a17.9,17.9,0,0,1,7.12,4.85c2,2.21,3,5.23,3,9A15.45,15.45,0,0,1,195.86,96.05Z"/><path class="cls-4" d="M289.39,19.45A53.76,53.76,0,0,0,235.64,73.2c0,29.69,25.7,31.33,55.38,31.33s52.12-1.64,52.12-31.33A53.75,53.75,0,0,0,289.39,19.45Z"/><path class="cls-3" d="M307.52,95.22q-4.65,4.73-13.49,6.06V110l-8.26-2-1.12-6.32a48.88,48.88,0,0,1-11.11-2,32.31,32.31,0,0,1-8.68-3.95L270,84.23A34.67,34.67,0,0,0,288,89.63q8.91,0,8.92-4.46a3.7,3.7,0,0,0-2.55-3.48,46.49,46.49,0,0,0-8.17-2.39,76.36,76.36,0,0,1-10.32-2.85,17.39,17.39,0,0,1-7.12-4.89q-3-3.36-3-9.07A15.67,15.67,0,0,1,270.65,51q4.85-4.82,14-5.91v-8.6H294v8.44a46.42,46.42,0,0,1,8.56,1.57,31.63,31.63,0,0,1,7.32,3L305.14,61A31.87,31.87,0,0,0,290,56.78q-4.62,0-6.73,1.37a4.1,4.1,0,0,0-2.11,3.56c0,1.46.83,2.55,2.5,3.28a44.94,44.94,0,0,0,8.06,2.27,75.54,75.54,0,0,1,10.36,2.86A17.84,17.84,0,0,1,309.16,75q3,3.33,3,9A15.46,15.46,0,0,1,307.52,95.22Z"/><path class="cls-5" d="M307.81,344.14h1a24.67,24.67,0,1,0-1,0Z"/><path class="cls-6" d="M350.22,292.33A23.91,23.91,0,0,0,356,274.8a24.22,24.22,0,0,0-24-22.28c-.61,0-1.23,0-1.86.07a24.09,24.09,0,0,0-20.22,33.82,33.87,33.87,0,0,1,25.45,14A24,24,0,0,0,350.22,292.33Z"/><path class="cls-7" d="M342.42,171.21a18.91,18.91,0,0,0-2.2-1.66,24.08,24.08,0,0,0-36.66,25.22A23.51,23.51,0,0,0,305,199c.57,0,1.14,0,1.71,0a33.14,33.14,0,0,1,18.07,5.29,32.72,32.72,0,0,1,9.1,8.85A33.43,33.43,0,0,1,341,206a31.8,31.8,0,0,1-1.9-4,33.47,33.47,0,0,1,.6-25.82A32.66,32.66,0,0,1,342.42,171.21Z"/><path class="cls-8" d="M361,199.47a33,33,0,0,1,3.56.2,33.74,33.74,0,0,1,20.19,9.64,24.16,24.16,0,0,0,8.35-28.26,24.27,24.27,0,0,0-22.5-15.39,24.13,24.13,0,0,0-22.51,32.84,23.55,23.55,0,0,0,1.42,3A33.74,33.74,0,0,1,361,199.47Z"/><path class="cls-9" d="M256.45,296.65a35.5,35.5,0,0,1-3.35-5.59L146.44,328.87l11.36,73.36,21.92-3.44-6.65-41.51,101-36.16c0-.36,0-.72,0-1.08a33.19,33.19,0,0,1,1.8-10.76A33.43,33.43,0,0,1,256.45,296.65Z"/><path class="cls-10" d="M339.75,221.54a24.11,24.11,0,0,0-.52,22.31,33.59,33.59,0,0,1,20.13,13.41c.51,0,1,.05,1.54.05a24.1,24.1,0,0,0,2.6-48.07,26.44,26.44,0,0,0-2.65-.14A24.16,24.16,0,0,0,339.75,221.54Z"/><path class="cls-11" d="M300,287.25a31.69,31.69,0,0,1-1.75-8.06A33.41,33.41,0,0,1,302,261a24.11,24.11,0,1,0-21.68,39.48A34,34,0,0,1,300,287.25Z"/><path class="cls-12" d="M105.41,410.44l36.3-5.69-13.39-83.63L249.88,278a34.25,34.25,0,0,1,.36-6.38,32.12,32.12,0,0,1,1.41-5.6,33.62,33.62,0,0,1-23.13-19.39L87.77,296.53Z"/><path class="cls-13" d="M223.15,172.72a24,24,0,0,0,9.64,39.95,32.41,32.41,0,0,1,4.42-4.82,33.48,33.48,0,0,1,14.54-7.39,33.75,33.75,0,0,1-.94-3.37l-.14-.66a33.12,33.12,0,0,1,1.52-18.6c.12-.33.27-.65.41-1a36.36,36.36,0,0,1,2.3-4.49,9.24,9.24,0,0,1,.49-1l.14-.19a24.16,24.16,0,0,0-15.41-5.52A23.87,23.87,0,0,0,223.15,172.72Z"/><path class="cls-14" d="M243.57,215.08a24.12,24.12,0,0,0-2.17,34A24.27,24.27,0,0,0,255.53,257c.24,0,.47,0,.71.07a33.33,33.33,0,0,1,7.36-7.6,32.87,32.87,0,0,1,11.13-5.3,35,35,0,0,1-1.31-4.54,33.49,33.49,0,0,1,3.48-23.18,24.21,24.21,0,0,0-33.33-1.35Z"/><path class="cls-15" d="M286.18,219.48a23.86,23.86,0,0,0-3.34,18.11,22.4,22.4,0,0,0,2,5.42,33.74,33.74,0,0,1,22.88,10.14,33.58,33.58,0,0,1,20.9-10.1,33.78,33.78,0,0,1,0-19.59,23.85,23.85,0,0,0-22.19-15A24,24,0,0,0,286.18,219.48Z"/><path class="cls-16" d="M267,172.43a24,24,0,0,0-5.36,27.18,33.49,33.49,0,0,1,21.05,9.14,33.58,33.58,0,0,1,12.66-7.9,30.11,30.11,0,0,1-1.2-4.06,33.47,33.47,0,0,1,4.68-25.37l.12-.18a24.22,24.22,0,0,0-15.36-5.48A23.84,23.84,0,0,0,267,172.43Z"/><path class="cls-17" d="M580.19,112l-24,3.75a40.82,40.82,0,0,0-34,46.58l9.33,59.72a40.93,40.93,0,0,0,46.59,34l24-3.76ZM562,204.46a17.2,17.2,0,1,1,17.2-17.2A17.2,17.2,0,0,1,562,204.46Z"/><path class="cls-18" d="M604,264.15,580,267.9a53.67,53.67,0,0,1-8.82.64,53,53,0,0,1-51.47-44.63l-9.33-59.73a52.84,52.84,0,0,1,44-60.29l24-3.74-3.56-22.68a41.18,41.18,0,0,0-46.93-34.21L34.71,120.56A41.19,41.19,0,0,0,.5,167.5L33.82,380.09a41.19,41.19,0,0,0,46.94,34.22l8.77-1.38L69.65,288.78,225.76,233.3c0-.75,0-1.5.06-2.25A33.12,33.12,0,0,1,228,221.2a33.67,33.67,0,0,1,12.05-65.11,33.85,33.85,0,0,1,21.91,8,33.16,33.16,0,0,1,3.39-2.6,14.7,14.7,0,0,1,1.4-.78l.65-.35a33.05,33.05,0,0,1,3.78-1.87c.53-.21,1.07-.37,1.61-.53l.7-.21a34.2,34.2,0,0,1,4-1.07c.51-.1,1-.15,1.54-.2l.7-.06a33.47,33.47,0,0,1,4.13-.32c.61,0,1.09.05,1.57.1l.68.06a33.31,33.31,0,0,1,4.31.51c.54.11,1.07.27,1.61.43l.74.22a33.52,33.52,0,0,1,3.82,1.22,22.52,22.52,0,0,1,2.25,1.13l.72.39.84.41a12.18,12.18,0,0,1,1.63.87c.88.62,1.45,1.08,2,1.52-3.64-17-10.33-39.33-29.47-45.45-4.93-1.58-8.69-2.43-12.31-2.43-9.76,0-19.59,5.56-36.31,20.49a4.81,4.81,0,0,1-6.42-7.17c18.51-16.54,30.46-23,42.63-23a47.53,47.53,0,0,1,15.53,3c11.14,3.82,18.49,9.7,26.09,23.47a99.31,99.31,0,0,0,14.79,1.18h0c34.77,0,44.8-21.5,45.21-22.41a4.82,4.82,0,0,1,8.81,3.89c-.51,1.15-12.87,28.22-53.9,28.22a98.82,98.82,0,0,1-10.6-.66,142.35,142.35,0,0,1,5,17.18,34.3,34.3,0,0,1,14.35-3.17,33.17,33.17,0,0,1,18.06,5.34,29.52,29.52,0,0,1,3.36,2.56,33.46,33.46,0,0,1,21.7-8,34,34,0,0,1,31.54,21.53,33.65,33.65,0,0,1-11.68,39.48,33.2,33.2,0,0,1,4.09,19.82,34,34,0,0,1-30.39,30,30.56,30.56,0,0,1,1.5,7.24,33.51,33.51,0,0,1-8.06,24.54,33,33,0,0,1-17.74,10.68A32.94,32.94,0,0,1,341.6,320a33.78,33.78,0,0,1-64.4,14.23L191.2,365,196,396.24,573.89,337a41.19,41.19,0,0,0,34.21-46.94Z"/></g></g></svg>